<svg width="27" height="27" viewBox="0 0 27 27" fill="none" xmlns="http://www.w3.org/2000/svg">
<path d="M26.3073 13.3279C26.3072 10.8129 25.5864 8.35061 24.2302 6.23261C22.874 4.11462 20.9392 2.42966 18.655 1.37728C16.3708 0.324902 13.8328 -0.0508035 11.3416 0.294652C8.85046 0.640107 6.51048 1.69226 4.59881 3.32649C2.68714 4.96072 1.28387 7.10857 0.555161 9.51569C-0.173543 11.9228 -0.19715 14.4883 0.487152 16.9084C1.17145 19.3286 2.535 21.5019 4.41628 23.171C6.29757 24.8401 8.61778 25.9351 11.1022 26.3263V17.1311H7.74534V13.3279H11.0866V10.4253C11.0866 7.12887 13.0496 5.30621 16.0555 5.30621C17.0423 5.31989 18.0268 5.4059 19.001 5.56354V8.80145H17.3421C15.7085 8.80145 15.1978 9.81706 15.1978 10.8561V13.3259H18.8568L18.272 17.1292H15.2056V26.3244C18.3001 25.8339 21.1181 24.2557 23.1531 21.8734C25.1881 19.4911 26.3065 16.461 26.3073 13.3279Z" fill="#E4E0E0"/>
<path d="M18.2722 17.1316L18.8571 13.3283H15.2059V10.8585C15.2059 9.81945 15.7166 8.80384 17.3502 8.80384H19.0091V5.5659C18.0349 5.40827 17.0504 5.32227 16.0636 5.30859C13.0577 5.30859 11.0946 7.13126 11.0946 10.4277V13.3283H7.74561V17.1316H11.0868V26.3268C12.449 26.5399 13.8359 26.5399 15.1981 26.3268V17.1316H18.2722Z" fill="#433535"/>
</svg>
