<svg width="27" height="28" viewBox="0 0 27 28" fill="none" xmlns="http://www.w3.org/2000/svg">
<path d="M13.7823 27.1369C21.0494 27.1369 26.9406 21.2457 26.9406 13.9786C26.9406 6.71148 21.0494 0.820312 13.7823 0.820312C6.51518 0.820312 0.624023 6.71148 0.624023 13.9786C0.624023 21.2457 6.51518 27.1369 13.7823 27.1369Z" fill="#E4E0E0"/>
<path d="M19.4422 7.82031H8.80584C8.15289 7.82031 7.62402 8.34918 7.62402 9.00213V19.6385C7.62402 20.2914 8.15289 20.8203 8.80584 20.8203H19.4422C20.0952 20.8203 20.624 20.2914 20.624 19.6385V9.00213C20.624 8.34918 20.0952 7.82031 19.4422 7.82031ZM11.7332 18.4567H9.99002V12.8478H11.7332V18.4567ZM10.8439 12.0459C10.2819 12.0459 9.82752 11.5903 9.82752 11.0295C9.82752 10.4688 10.2825 10.0138 10.8439 10.0138C11.4041 10.0138 11.8597 10.4694 11.8597 11.0295C11.8597 11.5903 11.4041 12.0459 10.8439 12.0459ZM18.2627 18.4567H16.5208V15.729C16.5208 15.0784 16.5089 14.2417 15.6149 14.2417C14.7078 14.2417 14.5684 14.9502 14.5684 15.6818V18.4567H12.8264V12.8478H14.4987V13.6142H14.5223C14.7551 13.1734 15.3236 12.7083 16.1715 12.7083C17.9366 12.7083 18.2627 13.87 18.2627 15.3804V18.4567Z" fill="#433535"/>
</svg>
