<svg xmlns="http://www.w3.org/2000/svg" width="17.371" height="23.625" viewBox="0 0 17.371 23.625">
  <g id="Group_2273" data-name="Group 2273" transform="translate(-347.815 -5492.388)">
    <g id="Path_3405" data-name="Path 3405" transform="translate(347.815 5492.388)" fill="none">
      <path d="M8.685,0a8.685,8.685,0,0,1,8.685,8.685c0,4.8-7.548,14.709-8.685,14.94C7.311,23.287,0,13.482,0,8.685A8.685,8.685,0,0,1,8.685,0Z" stroke="none"/>
      <path d="M 8.685495376586914 1.5 C 4.723395347595215 1.5 1.499995231628418 4.723400115966797 1.499995231628418 8.685500144958496 C 1.499995231628418 10.34570980072021 2.747075080871582 13.31184005737305 4.835925102233887 16.61988067626953 C 6.358720779418945 19.0314884185791 7.823264122009277 20.84614372253418 8.661309242248535 21.71528816223145 C 9.501926422119141 20.81605911254883 10.98235130310059 18.96347045898438 12.48702526092529 16.60065078735352 C 14.60595512390137 13.27322959899902 15.87099552154541 10.31429958343506 15.87099552154541 8.685500144958496 C 15.87099552154541 4.723400115966797 12.64759540557861 1.5 8.685495376586914 1.5 M 8.685495376586914 0 C 13.48236560821533 0 17.37099456787109 3.888629913330078 17.37099456787109 8.685500144958496 C 17.37099456787109 13.48235988616943 9.822925567626953 23.39429092407227 8.685495376586914 23.625 C 7.311135292053223 23.28684997558594 -3.814697265625e-06 13.48235988616943 -3.814697265625e-06 8.685500144958496 C -3.814697265625e-06 3.888629913330078 3.888625144958496 0 8.685495376586914 0 Z" stroke="none" fill="#fff"/>
    </g>
    <g id="Ellipse_161" data-name="Ellipse 161" transform="translate(353 5497)" fill="none" stroke="#fff" stroke-width="1.5">
      <circle cx="3.5" cy="3.5" r="3.5" stroke="none"/>
      <circle cx="3.5" cy="3.5" r="2.75" fill="none"/>
    </g>
  </g>
</svg>
