<svg width="119" height="78" viewBox="0 0 119 78" fill="none" xmlns="http://www.w3.org/2000/svg">
<g clip-path="url(#clip0_20_9)">
<path d="M41.5635 30.826H33.8454V37.9305H30.3467V20.5208H33.8454V27.4308H41.5635V20.5208H45.0621V37.9305H41.5635V30.826Z" fill="#1C0C0D"/>
<path d="M48.651 36.8237C47.675 35.8366 47.1794 34.4007 47.1794 32.5012V30.826C47.1794 28.9265 47.675 27.4906 48.651 26.5035C49.627 25.5163 51.0835 25.0377 53.0206 25.0377H53.381C55.318 25.0377 56.7745 25.5313 57.7505 26.5035C58.7266 27.4906 59.2221 28.9265 59.2221 30.826V32.5012C59.2221 34.4007 58.7266 35.8366 57.7505 36.8237C56.7745 37.8109 55.318 38.2895 53.381 38.2895H53.0206C51.0835 38.2895 49.627 37.7959 48.651 36.8237ZM53.0806 35.1934H53.3509C55.0177 35.1934 55.8435 34.3259 55.8435 32.5909V30.7662C55.8435 29.0462 55.0177 28.1787 53.3509 28.1787H53.0806C51.4139 28.1787 50.588 29.0462 50.588 30.7662V32.5909C50.588 34.3259 51.4139 35.1934 53.0806 35.1934Z" fill="#1C0C0D"/>
<path d="M62.1802 26.4586C63.0961 25.5163 64.4475 25.0377 66.2344 25.0377H66.3095C67.4357 25.0377 68.3366 25.2322 69.0274 25.621C69.7181 26.0099 70.2286 26.5184 70.559 27.1317C70.8893 26.5184 71.3998 26.0099 72.0906 25.621C72.7813 25.2322 73.6822 25.0377 74.7934 25.0377H74.8985C76.6854 25.0377 78.0368 25.5163 78.9528 26.4586C79.8687 27.4009 80.3192 28.8218 80.3192 30.6765V37.9305H76.9407V30.7512C76.9407 29.9585 76.7455 29.3453 76.3701 28.9265C75.9947 28.5077 75.4241 28.2983 74.6733 28.2983H74.5231C73.0065 28.2983 72.2557 29.1209 72.2557 30.7512V37.9305H68.8772V30.7512C68.8772 29.9436 68.682 29.3303 68.3066 28.9115C67.9312 28.4928 67.3606 28.2834 66.6098 28.2834H66.4596C64.9431 28.2834 64.1923 29.106 64.1923 30.7363V37.9156H60.8137V30.6615C60.8137 28.7919 61.2642 27.3859 62.1802 26.4437V26.4586Z" fill="#1C0C0D"/>
<path d="M83.3224 36.8237C82.3464 35.8366 81.8508 34.4007 81.8508 32.5012V30.826C81.8508 28.9265 82.3464 27.4906 83.3224 26.5035C84.2984 25.5163 85.7549 25.0377 87.692 25.0377H87.9623C89.8993 25.0377 91.3558 25.5313 92.3318 26.5035C93.3079 27.4906 93.8034 28.9265 93.8034 30.826V32.9499H85.1994C85.2444 34.5503 86.0703 35.3579 87.6619 35.3579H87.9773C88.5629 35.3579 89.0434 35.2533 89.4038 35.0588C89.7641 34.8494 90.0344 34.5503 90.2146 34.1165H93.6682C93.1427 36.9135 91.2357 38.3045 87.9472 38.3045H87.677C85.7399 38.3045 84.2834 37.8109 83.3074 36.8387L83.3224 36.8237ZM90.4999 30.4671C90.4849 29.6295 90.2747 29.0013 89.8542 28.5975C89.4338 28.1936 88.8182 27.9842 88.0073 27.9842H87.6619C86.8511 27.9842 86.2354 28.1936 85.83 28.5975C85.4246 29.0013 85.2144 29.6295 85.1994 30.4671H90.4999Z" fill="#1C0C0D"/>
<path d="M30.3467 40.3835H33.8454V57.7933H30.3467V40.3835Z" fill="#1C0C0D"/>
<path d="M41.954 44.8855H42.4646C46.2185 44.8855 48.0805 46.7701 48.0805 50.5392V57.7933H44.7019V50.5841C44.7019 48.9388 43.9061 48.1311 42.3294 48.1311H42.0591C40.4825 48.1311 39.6867 48.9538 39.6867 50.5841V57.7933H36.3081V50.5392C36.3081 46.7701 38.1851 44.8855 41.924 44.8855H41.954Z" fill="#1C0C0D"/>
<path d="M53.2308 42.5223V45.2444H56.7295V48.2358H53.2308V52.4985C53.2308 53.3959 53.4711 53.9942 53.9366 54.2933C54.4021 54.6074 55.0628 54.757 55.8886 54.757H56.9848V57.7783H55.3481C51.6842 57.7783 49.8523 56.0881 49.8523 52.7079V42.5073H53.2308V42.5223Z" fill="#1C0C0D"/>
<path d="M59.1171 56.6865C58.141 55.6993 57.6455 54.2634 57.6455 52.3639V50.6888C57.6455 48.7892 58.141 47.3534 59.1171 46.3662C60.0931 45.3791 61.5496 44.9005 63.4866 44.9005H63.7569C65.694 44.9005 67.1505 45.394 68.1265 46.3662C69.1025 47.3534 69.5981 48.7892 69.5981 50.6888V52.8126H60.994C61.0391 54.413 61.8649 55.2207 63.4566 55.2207H63.7719C64.3576 55.2207 64.8381 55.116 65.1984 54.9215C65.5588 54.7121 65.8441 54.413 66.0243 53.9793H69.4779C68.9524 56.7762 67.0454 58.1672 63.7569 58.1672H63.4866C61.5496 58.1672 60.0931 57.6736 59.1171 56.7014V56.6865ZM66.3096 50.3148C66.2946 49.4772 66.0844 48.8491 65.6639 48.4452C65.2435 48.0414 64.6278 47.832 63.817 47.832H63.4716C62.6608 47.832 62.0451 48.0414 61.6397 48.4452C61.2343 48.8491 61.0241 49.4772 61.009 50.3148H66.3096Z" fill="#1C0C0D"/>
<path d="M78.8928 48.3854H77.0308C76.3101 48.3854 75.7245 48.6396 75.244 49.1332C74.7785 49.6418 74.5382 50.2849 74.5382 51.0776V57.7783H71.1597V50.7486C71.1597 48.9537 71.6552 47.5777 72.6612 46.6504C73.6673 45.7231 75.0938 45.2444 76.9558 45.2444H78.8928V48.3854Z" fill="#1C0C0D"/>
<path d="M80.3643 40.2787H83.7428V43.5393H80.3643V40.2787ZM80.3643 45.2444H83.7428V57.7783H80.3643V45.2444Z" fill="#1C0C0D"/>
<path d="M86.7911 56.6865C85.8151 55.6993 85.3196 54.2634 85.3196 52.3639V50.6888C85.3196 48.7892 85.8151 47.3534 86.7911 46.3662C87.7672 45.3791 89.2237 44.9005 91.1607 44.9005H91.5211C93.4581 44.9005 94.9147 45.394 95.8907 46.3662C96.8667 47.3534 97.3622 48.7892 97.3622 50.6888V52.3639C97.3622 54.2634 96.8667 55.6993 95.8907 56.6865C94.9147 57.6736 93.4581 58.1522 91.5211 58.1522H91.1607C89.2237 58.1522 87.7672 57.6587 86.7911 56.6865ZM91.2058 55.0412H91.476C93.1428 55.0412 93.9687 54.1737 93.9687 52.4387V50.614C93.9687 48.8939 93.1428 48.0264 91.476 48.0264H91.2058C89.539 48.0264 88.7131 48.8939 88.7131 50.614V52.4387C88.7131 54.1737 89.539 55.0412 91.2058 55.0412Z" fill="#1C0C0D"/>
<path d="M106.657 48.3854H104.795C104.074 48.3854 103.489 48.6396 103.008 49.1332C102.543 49.6418 102.302 50.2849 102.302 51.0776V57.7783H98.9238V50.7486C98.9238 48.9537 99.4193 47.5777 100.425 46.6504C101.431 45.7231 102.858 45.2444 104.72 45.2444H106.657V48.3854Z" fill="#1C0C0D"/>
<path d="M109.87 57.5839C109.12 57.2099 108.534 56.6865 108.143 56.0134C107.753 55.3553 107.558 54.6075 107.558 53.7998H110.951C110.951 54.2335 111.072 54.5775 111.327 54.8318C111.582 55.0861 112.078 55.2057 112.828 55.2057H113.684C114.375 55.2057 114.856 55.1309 115.156 54.9814C115.456 54.8318 115.591 54.5775 115.591 54.2335C115.591 53.9344 115.486 53.71 115.291 53.5455C115.096 53.381 114.78 53.2464 114.345 53.1716C112.843 52.8425 111.837 52.6332 111.312 52.5434C110.141 52.2891 109.255 51.8703 108.654 51.302C108.053 50.7336 107.753 49.8811 107.753 48.7145C107.753 47.488 108.189 46.5308 109.074 45.8727C109.96 45.2145 111.222 44.8855 112.858 44.8855H113.789C114.856 44.8855 115.756 45.0799 116.522 45.4539C117.288 45.8427 117.874 46.3513 118.264 46.9944C118.655 47.6376 118.85 48.3704 118.85 49.1632H115.456C115.456 48.7444 115.336 48.4153 115.081 48.176C114.825 47.9367 114.33 47.817 113.579 47.817H113.069C112.363 47.817 111.867 47.8918 111.597 48.0414C111.312 48.191 111.177 48.4452 111.177 48.7892C111.177 49.0884 111.267 49.3127 111.477 49.4922C111.687 49.6717 111.988 49.8063 112.408 49.8811L115.456 50.5093C116.627 50.7635 117.513 51.1823 118.114 51.7507C118.715 52.3191 119.015 53.1866 119.015 54.3382C119.015 55.5647 118.579 56.507 117.694 57.1651C116.808 57.8232 115.546 58.1373 113.91 58.1373H112.633C111.552 58.1373 110.636 57.9428 109.885 57.5689L109.87 57.5839Z" fill="#1C0C0D"/>
<path d="M38.9058 60.2312C39.8818 60.2312 40.7828 60.4556 41.5786 60.9192C42.3895 61.3679 43.0201 61.9961 43.5006 62.7888C43.9661 63.5815 44.2064 64.449 44.2064 65.4063V67.3058C44.2064 68.278 43.9661 69.1754 43.5006 69.998C43.0351 70.8207 42.3895 71.4638 41.5786 71.9424C40.7677 72.421 39.8818 72.6603 38.9208 72.6603L33.8305 72.6903V77.6559H30.3318V60.2462H38.8908L38.9058 60.2312ZM38.4853 69.31C39.9569 69.31 40.6927 68.5472 40.6927 67.0216V65.855C40.6927 64.3144 39.9569 63.5367 38.4853 63.5367H33.8455V69.325L38.4853 69.2951V69.31Z" fill="#1C0C0D"/>
<path d="M52.8855 68.2481H51.0235C50.3028 68.2481 49.7171 68.5023 49.2366 68.9959C48.7711 69.5044 48.5309 70.1476 48.5309 70.9403V77.641H45.1523V70.6112C45.1523 68.8164 45.6479 67.4404 46.6539 66.5131C47.66 65.5857 49.0865 65.1071 50.9484 65.1071H52.8855V68.2481Z" fill="#1C0C0D"/>
<path d="M55.0328 76.5342C54.0568 75.547 53.5613 74.1112 53.5613 72.2116V70.5365C53.5613 68.6369 54.0568 67.2011 55.0328 66.2139C56.0089 65.2268 57.4654 64.7482 59.4024 64.7482H59.7628C61.6998 64.7482 63.1564 65.2417 64.1324 66.2139C65.1084 67.2011 65.6039 68.6369 65.6039 70.5365V72.2116C65.6039 74.1112 65.1084 75.547 64.1324 76.5342C63.1564 77.5213 61.6998 77.9999 59.7628 77.9999H59.4024C57.4654 77.9999 56.0089 77.5064 55.0328 76.5342ZM59.4625 74.8889H59.7328C61.3995 74.8889 62.2254 74.0214 62.2254 72.2864V70.4617C62.2254 68.7416 61.3995 67.8742 59.7328 67.8742H59.4625C57.7957 67.8742 56.9699 68.7416 56.9699 70.4617V72.2864C56.9699 74.0214 57.7957 74.8889 59.4625 74.8889Z" fill="#1C0C0D"/>
<path d="M25.6319 69.7737L25.692 69.699V63.0132L4.98524 46.9945V46.9645L0 49.3876L25.6319 69.7737Z" fill="url(#paint0_linear_20_9)"/>
<path d="M0 17.649V49.3875L4.98524 46.9645V20.0421C2.92808 19.055 0.330347 17.7986 0 17.649Z" fill="url(#paint1_linear_20_9)"/>
<path d="M42.8249 16.4226L22.2083 0V6.35666L34.8515 16.4226H42.8249Z" fill="url(#paint2_linear_20_9)"/>
<path d="M0 17.6491C0.315331 17.7987 2.92808 19.055 4.97022 20.0422L22.2083 6.34171V0L0 17.6491Z" fill="url(#paint3_linear_20_9)"/>
<path d="M22.2084 19.9076V13.5061L22.1633 13.4612L10.7664 22.8242C13.1388 23.9609 14.3852 24.5741 15.6765 25.1874L22.2084 19.9076Z" fill="url(#paint4_linear_20_9)"/>
<path d="M25.6919 23.0485V16.7217L22.2083 13.506V19.9075L22.2533 19.8776" fill="url(#paint5_linear_20_9)"/>
<path d="M25.6919 55.2207V48.6696L15.6764 41.0416V40.9219L10.7212 43.3449L25.6919 55.2207Z" fill="url(#paint6_linear_20_9)"/>
<path d="M10.6912 43.315L10.7212 43.345L15.6764 40.9369V25.2172C14.385 24.5891 13.1387 23.9908 10.7662 22.8541L10.6912 22.9139V43.33V43.315Z" fill="url(#paint7_linear_20_9)"/>
</g>
<defs>
<linearGradient id="paint0_linear_20_9" x1="23.5297" y1="66.8272" x2="6.55376" y2="49.7994" gradientUnits="userSpaceOnUse">
<stop stop-color="#FFD141"/>
<stop offset="1" stop-color="#D07828"/>
</linearGradient>
<linearGradient id="paint1_linear_20_9" x1="2.49262" y1="47.6824" x2="2.49262" y2="21.9566" gradientUnits="userSpaceOnUse">
<stop stop-color="#FFD141"/>
<stop offset="1" stop-color="#D07828"/>
</linearGradient>
<linearGradient id="paint2_linear_20_9" x1="21.7428" y1="1.34612" x2="36.9128" y2="15.5997" gradientUnits="userSpaceOnUse">
<stop stop-color="#FFD141"/>
<stop offset="1" stop-color="#D07828"/>
</linearGradient>
<linearGradient id="paint3_linear_20_9" x1="3.67886" y1="18.7559" x2="18.626" y2="5.05672" gradientUnits="userSpaceOnUse">
<stop stop-color="#FFD141"/>
<stop offset="1" stop-color="#D07828"/>
</linearGradient>
<linearGradient id="paint4_linear_20_9" x1="14.2951" y1="23.8562" x2="20.2599" y2="17.0724" gradientUnits="userSpaceOnUse">
<stop stop-color="#FFD141"/>
<stop offset="1" stop-color="#D07828"/>
</linearGradient>
<linearGradient id="paint5_linear_20_9" x1="20.6616" y1="16.1384" x2="27.0882" y2="20.3494" gradientUnits="userSpaceOnUse">
<stop stop-color="#FFD141"/>
<stop offset="1" stop-color="#D07828"/>
</linearGradient>
<linearGradient id="paint6_linear_20_9" x1="23.6047" y1="51.3768" x2="14.9149" y2="42.6527" gradientUnits="userSpaceOnUse">
<stop stop-color="#FFD141"/>
<stop offset="1" stop-color="#D07828"/>
</linearGradient>
<linearGradient id="paint7_linear_20_9" x1="13.1838" y1="41.8044" x2="13.1838" y2="25.8753" gradientUnits="userSpaceOnUse">
<stop stop-color="#FFD141"/>
<stop offset="1" stop-color="#D07828"/>
</linearGradient>
<clipPath id="clip0_20_9">
<rect width="119" height="78" fill="white"/>
</clipPath>
</defs>
</svg>
