<svg xmlns="http://www.w3.org/2000/svg" width="23.827" height="23.827" viewBox="0 0 23.827 23.827">
  <g id="Group_2191" data-name="Group 2191" transform="translate(1030.062 -416.634)">
    <path id="Path_2586" data-name="Path 2586" d="M-1029.138,429.335a15.96,15.96,0,0,1-.691-1.919,4.961,4.961,0,0,1-.144-2.361,2.465,2.465,0,0,1,.663-1.219q1.512-1.513,3.024-3.025a3.019,3.019,0,0,1,2.337-.883l.853.2a4.079,4.079,0,0,1,1.492,1.1c.065.07.141.129.213.193a4.729,4.729,0,0,0,.583.586l1.538,1.545.416.588a3.237,3.237,0,0,1,.286,2.214,3.017,3.017,0,0,1-.792,1.387c-.432.442-.9.853-1.3,1.325-.272.324-.258.638.049,1.1a8.009,8.009,0,0,0,1.455,1.623,4.607,4.607,0,0,0,.58.585,10.061,10.061,0,0,0,.881.873,2.825,2.825,0,0,0,.87.634.735.735,0,0,0,.95-.028c.235-.218.44-.469.658-.705.091.007.1-.064.128-.126a2.257,2.257,0,0,0,.511-.512c.225-.122.4-.315.626-.439a3.086,3.086,0,0,1,2.831-.1c.04.017.082.032.123.048l.611.416,1.606,1.592a3.7,3.7,0,0,0,.531.53c.226.235.454.469.678.705a3.811,3.811,0,0,1,.653,1.052,4.533,4.533,0,0,1,.177,1.279q-.034.239-.068.478l-.03.108a3.576,3.576,0,0,1-.958,1.474c-.907.885-1.811,1.774-2.687,2.689a2.959,2.959,0,0,1-2.62.86,9.223,9.223,0,0,1-2.6-.741c-.138-.058-.278-.111-.418-.167l-.639-.306-2.08-1.16a2.763,2.763,0,0,0-.585-.371l-1.837-1.28-.614-.468-1.74-1.482-.492-.494-1.391-1.639a4.356,4.356,0,0,0-.467-.6l-1.311-1.855a3.691,3.691,0,0,0-.377-.582l-1.147-2.014Zm8.912,3.527c-.488-.541-1.037-1.026-1.481-1.607l-.36-.589a.779.779,0,0,0-.026-.1,2.261,2.261,0,0,1,.586-2.793c.377-.373.758-.744,1.124-1.129a1.309,1.309,0,0,0,.376-1.237,1.3,1.3,0,0,0-.368-.815c-.474-.535-.993-1.027-1.508-1.522a4.966,4.966,0,0,0-.579-.575c-.222-.225-.43-.467-.671-.67a1.5,1.5,0,0,0-1.452-.334.092.092,0,0,0-.107.039.11.11,0,0,0-.109.045,1.1,1.1,0,0,0-.488.349q-1.458,1.452-2.91,2.909a.782.782,0,0,0-.265.416,1.379,1.379,0,0,0-.121.774,5.8,5.8,0,0,0,.572,2.106,2.406,2.406,0,0,0,.291.643,13.685,13.685,0,0,0,1.121,2.06,3.207,3.207,0,0,0,.4.644,16.993,16.993,0,0,0,1.278,1.862,3.965,3.965,0,0,0,.488.643,13.657,13.657,0,0,0,1.426,1.7,2.942,2.942,0,0,0,.542.538,13.542,13.542,0,0,0,1.64,1.377,4.194,4.194,0,0,0,.647.487,17.816,17.816,0,0,0,1.968,1.335,1.828,1.828,0,0,0,.511.312,13.032,13.032,0,0,0,2.067,1.12,3.231,3.231,0,0,0,.767.337,6.086,6.086,0,0,0,1.586.487,2.1,2.1,0,0,0,1.248-.048.7.7,0,0,0,.394-.249q1.454-1.451,2.906-2.9a1.135,1.135,0,0,0,.358-.512,1.493,1.493,0,0,0-.25-1.626,5.34,5.34,0,0,0-.707-.708,3.764,3.764,0,0,0-.525-.525c-.512-.535-1.019-1.074-1.579-1.56a1.227,1.227,0,0,0-.7-.332,1.361,1.361,0,0,0-1.339.371c-.4.389-.79.788-1.184,1.182a2.306,2.306,0,0,1-1.933.751,5.179,5.179,0,0,1-.816-.221l-.694-.418c-.569-.459-1.073-.988-1.609-1.482A3.633,3.633,0,0,0-1020.226,432.862Z" transform="translate(0 -2.763)" fill="#fff"/>
    <path id="Path_2587" data-name="Path 2587" d="M-926.682,419.142a9.718,9.718,0,0,1,1.208,1.86l.287.736a8.52,8.52,0,0,1,.365,2.243.758.758,0,0,1-.729.841.753.753,0,0,1-.761-.807,4.963,4.963,0,0,0-.111-1,2.513,2.513,0,0,0-.189-.75,5.172,5.172,0,0,0-1.17-2.075,2.416,2.416,0,0,0-.537-.544,5.14,5.14,0,0,0-2.083-1.207,2.438,2.438,0,0,0-.746-.2,4.784,4.784,0,0,0-1.024-.119.754.754,0,0,1-.842-.751.748.748,0,0,1,.849-.739,8.283,8.283,0,0,1,2.292.381l.8.322a9.724,9.724,0,0,1,1.81,1.213Z" transform="translate(-81.412)" fill="#fff"/>
    <path id="Path_2588" data-name="Path 2588" d="M-944.469,443.218a.806.806,0,0,1,.157-1.016l.14-.086a2.379,2.379,0,0,1,.87-.055l.851.158a6.122,6.122,0,0,1,2.06,1.115l.445.433a6.158,6.158,0,0,1,1.167,2.165l.153.907a1.522,1.522,0,0,0,0,.209.781.781,0,0,1-1.161.848,1.2,1.2,0,0,1-.327-.476,3.643,3.643,0,0,0-.807-2.445,2.065,2.065,0,0,0-.572-.582,3.482,3.482,0,0,0-2.392-.847A.991.991,0,0,1-944.469,443.218Z" transform="translate(-71.709 -21.32)" fill="#fff"/>
  </g>
</svg>
