<svg width="39" height="30" viewBox="0 0 39 30" fill="none" xmlns="http://www.w3.org/2000/svg">
<path d="M34.3453 0.735111C35.13 0.14128 36.2175 0.230606 36.9554 0.881647C37.948 1.75748 37.9409 3.30163 36.9927 4.22531C35.8062 5.38103 34.7867 6.50892 33.9341 7.60899C32.711 9.1991 31.9363 10.4019 31.6101 11.2173C31.3025 11.9863 31.0131 12.9003 30.7417 13.9594C30.7102 14.0825 30.733 14.2132 30.8035 14.3189C30.8871 14.4445 31.0281 14.5194 31.1789 14.5214C33.7872 14.5555 35.7045 15.1462 36.9309 16.2934C38.1948 17.4758 38.8268 19.3106 38.8268 21.7976C38.8268 23.7139 38.1337 25.4467 36.7474 26.9961C35.4019 28.5454 33.7099 29.3201 31.6713 29.3201C29.3473 29.3201 27.4106 28.6677 25.8613 27.363C24.3119 26.0583 23.5373 23.9586 23.5373 21.0638C23.5373 17.2312 24.7197 13.2763 27.0844 9.1991C29.1568 5.65156 31.5771 2.83023 34.3453 0.735111ZM11.6557 0.735111C12.4403 0.14128 13.5279 0.230606 14.2658 0.881647C15.2584 1.75748 15.2511 3.30145 14.3029 4.22524C13.1283 5.36973 12.1292 6.47726 11.3057 7.54783C10.0825 9.13794 9.28746 10.3611 8.92052 11.2173C8.61366 12.0228 8.32484 12.9366 8.05407 13.9586C8.02134 14.0821 8.04367 14.2137 8.11456 14.32C8.19778 14.4449 8.33802 14.5194 8.48805 14.5214C11.0969 14.5553 13.0147 15.146 14.2413 16.2934C15.5052 17.4758 16.1372 19.3106 16.1372 21.7976C16.1372 23.7139 15.444 25.4467 14.0578 26.9961C12.7123 28.5454 11.0203 29.3201 8.98167 29.3201C6.65767 29.3201 4.721 28.6677 3.17166 27.363C1.62232 26.0583 0.847656 23.9586 0.847656 21.0638C0.847656 17.2312 2.03004 13.2763 4.39482 9.1991C6.46714 5.65156 8.88744 2.83023 11.6557 0.735111Z" fill="url(#paint0_linear_20_103)"/>
<defs>
<linearGradient id="paint0_linear_20_103" x1="56.9884" y1="55.051" x2="-1.01954" y2="53.077" gradientUnits="userSpaceOnUse">
<stop stop-color="#FCCB3F"/>
<stop offset="1" stop-color="#D07828"/>
</linearGradient>
</defs>
</svg>
